<svg xmlns="http://www.w3.org/2000/svg" xmlns:xlink="http://www.w3.org/1999/xlink" viewBox="0 0 321.05 114.83"><defs><style>.cls-1{fill:none;}.cls-2{clip-path:url(#clip-path);}</style><clipPath id="clip-path"><rect class="cls-1" width="321.05" height="114.83"/></clipPath></defs><title>Asset 7</title><g id="Layer_2" data-name="Layer 2"><g id="Layer_1-2" data-name="Layer 1"><g class="cls-2"><path d="M320.48,30.74c-1.27-.47-1.2,1.54-3.09,7-7.27,23-25.9,30.1-35.87,30.1S259,63.3,247,42.37,219.1,0,193.18,0c-23.33,0-31.3,13.3-32.65,16-1.36-2.66-9.32-16-32.66-16C102,0,86,21.44,74,42.37S49.49,67.85,39.53,67.85s-28.6-7.12-35.88-30.1c-1.88-5.47-1.81-7.48-3.08-7-.66.25-.7,2-.36,5.67s11.52,78.42,85.07,78.42c40.93,0,74-19.46,74-57.41a1.29,1.29,0,1,1,2.53,0c0,38,33.05,57.41,74,57.41,73.56,0,84.75-74.75,85.09-78.42s.29-5.42-.37-5.67Z"/></g></g></g></svg>