<svg xmlns="http://www.w3.org/2000/svg" xmlns:xlink="http://www.w3.org/1999/xlink" viewBox="0 0 76.67 86.87"><defs><style>.cls-1{fill:none;}.cls-2{clip-path:url(#clip-path);}.cls-3{clip-path:url(#clip-path-2);}.cls-4{clip-path:url(#clip-path-3);}</style><clipPath id="clip-path"><rect class="cls-1" x="24.45" y="34.46" width="27.89" height="9.98"/></clipPath><clipPath id="clip-path-2"><rect class="cls-1" x="1.76" y="48.62" width="73.31" height="30.27"/></clipPath><clipPath id="clip-path-3"><rect class="cls-1" x="0.07" width="76.69" height="31.61"/></clipPath></defs><title>Asset 12</title><g id="Layer_2" data-name="Layer 2"><g id="Layer_1-2" data-name="Layer 1"><g class="cls-2"><path d="M52.29,37.13c-.11,0-.1.13-.26.61a3.5,3.5,0,0,1-3.12,2.61c-.87,0-2-.39-3-2.21s-2.42-3.68-4.68-3.68a3,3,0,0,0-2.83,1.38,3,3,0,0,0-2.84-1.38c-2.25,0-3.64,1.86-4.68,3.68s-2.13,2.21-3,2.21a3.49,3.49,0,0,1-3.12-2.61c-.16-.48-.16-.65-.27-.61s-.06.17,0,.49,1,6.81,7.39,6.81c3.56,0,6.43-1.69,6.43-5a.12.12,0,0,1,.11-.13c.11,0,.11.13.11.13,0,3.3,2.87,5,6.42,5,6.39,0,7.37-6.49,7.4-6.81s0-.47,0-.49Z"/></g><g class="cls-3"><path d="M5.17,55.15A1.94,1.94,0,0,1,3.38,55a3.32,3.32,0,0,1-1.23-1.77A5.16,5.16,0,0,1,1.8,51l.84-.28a6,6,0,0,0,0,1.11A5.88,5.88,0,0,0,2.93,53a2.36,2.36,0,0,0,.78,1.21,1.14,1.14,0,0,0,1.08.12,1.2,1.2,0,0,0,.59-.37,1.59,1.59,0,0,0,.28-.68A7.82,7.82,0,0,0,5.76,52a3.74,3.74,0,0,1,.38-1.8,2.08,2.08,0,0,1,1.19-.91,1.73,1.73,0,0,1,1.61.19A2.8,2.8,0,0,1,10,51a5.32,5.32,0,0,1,.29,2.21l-.85,0a4.87,4.87,0,0,0-.23-1.94,1.83,1.83,0,0,0-.67-1,1,1,0,0,0-1-.11,1.35,1.35,0,0,0-.59.36,1.41,1.41,0,0,0-.29.64,5.85,5.85,0,0,0-.11,1.21,4.37,4.37,0,0,1-.35,1.94,1.84,1.84,0,0,1-1.11.87ZM19.7,64.66l-7.31,3.79-.62-.67L14.62,63c.12-.22.29-.48.49-.79a5.43,5.43,0,0,1,.38-.55,10.91,10.91,0,0,1-1.42.78l-5,2.43-.62-.68,4.45-6.93.66.72-2.78,4.25c-.39.59-.77,1.1-1.12,1.54a11.88,11.88,0,0,1,1.73-1L16,60.57l.66.72L14,65.69a15.67,15.67,0,0,1-1.11,1.61,16,16,0,0,1,1.65-1L19,63.93ZM26.31,77l-.87-.39.1-2.71-2.92-1.28-1.91,1.93-.86-.38,6.08-6.06.72.31Zm-3.06-5,2.36,1,.14-2.63q0-.5.12-1.2a9.59,9.59,0,0,1-.77.91Zm14.63,3.48,0-.83,2.7.14-.2,3.86a9.45,9.45,0,0,1-1.29.24,9.31,9.31,0,0,1-1.52,0,3.68,3.68,0,0,1-2.76-1.21A4.24,4.24,0,0,1,34,74.6a4.58,4.58,0,0,1,.6-2.15,3.46,3.46,0,0,1,1.51-1.35,4.6,4.6,0,0,1,2.21-.39,6.12,6.12,0,0,1,2.35.59l-.4.8a5.26,5.26,0,0,0-2.05-.56,3,3,0,0,0-2.31.75A3.35,3.35,0,0,0,35,74.64a3.41,3.41,0,0,0,.66,2.49,3,3,0,0,0,2.27.94A6.73,6.73,0,0,0,39.54,78l.12-2.44Zm15.41.22-.7.27-5-5.62,0,0a19.33,19.33,0,0,1,.78,1.83l1.82,4.72-.8.31-2.85-7.43,1.3-.5,4.7,5.23,0,0,0-7,1.29-.49,2.85,7.43-.87.33L54,69.9c-.21-.55-.42-1.15-.62-1.82l0,0Zm15-11.24-.66.69-2.51-1-2.21,2.31,1.16,2.46-.65.67-3.6-7.79.53-.56Zm-5.75,1.15,1.78-1.86-2.42-1c-.31-.13-.68-.3-1.09-.52a9.64,9.64,0,0,1,.59,1Zm5.16-16.85L75,51.85l-.42,1-7.85,1.35,0,0c.74.25,1.41.51,2,.77l4.15,1.79-.33.78-7.31-3.15.41-1L73.5,52.1v0l-.88-.33c-.5-.18-.85-.33-1.06-.42L67.38,49.5Z"/></g><g class="cls-4"><path d="M6.64,26.29a2,2,0,0,1,1.29,1.23,3.27,3.27,0,0,1-.11,2.12,5.29,5.29,0,0,1-1,1.92L6,31.27a5.07,5.07,0,0,0,.64-.89,5.33,5.33,0,0,0,.48-1,2.3,2.3,0,0,0,.11-1.41,1.14,1.14,0,0,0-.77-.74,1.17,1.17,0,0,0-.68-.06,1.47,1.47,0,0,0-.63.36,8.38,8.38,0,0,0-.85.95,3.75,3.75,0,0,1-1.38,1.18,2,2,0,0,1-1.47,0A1.71,1.71,0,0,1,.26,28.51a2.76,2.76,0,0,1,.07-1.87,5.11,5.11,0,0,1,1.1-1.9l.66.52a4.91,4.91,0,0,0-1,1.66A1.92,1.92,0,0,0,1,28.09a1,1,0,0,0,.69.66,1.29,1.29,0,0,0,.68.07A1.32,1.32,0,0,0,3,28.5a6.29,6.29,0,0,0,.8-.88,4.31,4.31,0,0,1,1.44-1.31,1.9,1.9,0,0,1,1.39,0ZM12.2,9.57l4.38,6.83-.61.67L11,14.7c-.23-.1-.5-.24-.82-.41A5.26,5.26,0,0,1,9.64,14a12,12,0,0,1,.89,1.32l2.82,4.65-.61.67-7.2-3.75.65-.71,4.42,2.35a18.31,18.31,0,0,1,1.62,1,13.79,13.79,0,0,1-1.14-1.61L8.52,13.6l.65-.71L13.72,15a15,15,0,0,1,1.68,1,17.13,17.13,0,0,1-1.11-1.54l-2.74-4.17Zm16.3-.26-.87.38L25.74,7.8,22.86,9.05,23,11.73l-.84.37-.32-8.46.7-.31ZM22.82,8.18l2.33-1L23.34,5.3c-.23-.24-.49-.53-.79-.89a8.83,8.83,0,0,1,.15,1.17ZM37.73,4.67l0-.81,2.66-.13.19,3.81a9.35,9.35,0,0,1-1.25.36,9.8,9.8,0,0,1-1.49.18A3.63,3.63,0,0,1,35,7.15a4.21,4.21,0,0,1-1.14-2.91,4.46,4.46,0,0,1,.39-2.17A3.24,3.24,0,0,1,35.57.6,4.62,4.62,0,0,1,37.71,0a6,6,0,0,1,2.36.34l-.32.83A5,5,0,0,0,37.69.83a2.89,2.89,0,0,0-2.2,1,3.33,3.33,0,0,0-.68,2.4,3.39,3.39,0,0,0,.89,2.37,3,3,0,0,0,2.32.7A6.44,6.44,0,0,0,39.6,7l-.12-2.41Zm13.33,6-.69-.26V3h0q-.23.79-.63,1.86L47.92,9.49l-.79-.3L50,1.87l1.28.49V9.29l0,0,4.66-5.14,1.28.49L54.38,12l-.85-.33,1.81-4.72c.21-.54.46-1.11.75-1.73l0,0Zm12.83,9.79-.65-.68,1.13-2.43L62.2,15.11l-2.47,1-.64-.67,7.84-3.19.53.55ZM63,14.77l1.75,1.84,1.13-2.34c.14-.29.33-.64.56-1a10.14,10.14,0,0,1-1,.54ZM76.67,28.23l-7.21,3.09-.41-1,4.36-6.53,0,0c-.68.36-1.32.66-1.91.92l-4.1,1.75-.33-.77,7.21-3.09.4.95-4.34,6.51v0l.84-.41c.47-.23.81-.39,1-.47l4.14-1.77Z"/></g><path d="M0,40.41a3,3,0,1,1,3,3,3,3,0,0,1-3-3Zm70.59,0a3,3,0,1,1,3,3,3,3,0,0,1-3-3Z"/><path d="M14.87,86.23a1.36,1.36,0,0,1-.49-.08,1.06,1.06,0,0,1-.36-.23l.08-.13a.78.78,0,0,0,.33.21,1.07,1.07,0,0,0,.43.09.85.85,0,0,0,.5-.13.4.4,0,0,0,.08-.58.55.55,0,0,0-.22-.14,2.86,2.86,0,0,0-.36-.1,2.85,2.85,0,0,1-.4-.12.64.64,0,0,1-.27-.19.48.48,0,0,1-.1-.33.56.56,0,0,1,.09-.31.6.6,0,0,1,.27-.22,1,1,0,0,1,.46-.08,1.18,1.18,0,0,1,.37,0,1.43,1.43,0,0,1,.33.15l-.07.14a1.4,1.4,0,0,0-.3-.15,1.26,1.26,0,0,0-.33,0,.82.82,0,0,0-.49.13.41.41,0,0,0-.16.34.36.36,0,0,0,.08.25.74.74,0,0,0,.23.14,2.13,2.13,0,0,0,.36.1l.4.13a.61.61,0,0,1,.26.18.43.43,0,0,1,.11.32.56.56,0,0,1-.09.31.58.58,0,0,1-.28.22,1.05,1.05,0,0,1-.46.08Zm3.63-1.74h.16L18,86.22h-.15l-.59-1.5-.58,1.5h-.15l-.66-1.73H16L16.6,86l.59-1.54h.15L17.92,86Zm1.07,0a.67.67,0,0,1,.49.16.61.61,0,0,1,.17.48v1.1h-.15v-.31a.64.64,0,0,1-.25.24.86.86,0,0,1-.38.08A.69.69,0,0,1,19,86.1a.45.45,0,0,1-.17-.36.42.42,0,0,1,.16-.35.72.72,0,0,1,.49-.14h.59v-.13a.46.46,0,0,0-.13-.37.52.52,0,0,0-.38-.13.92.92,0,0,0-.6.22l-.08-.12a.79.79,0,0,1,.31-.18,1.21,1.21,0,0,1,.38-.06Zm-.09,1.62a.69.69,0,0,0,.36-.1.66.66,0,0,0,.23-.29v-.33h-.59a.55.55,0,0,0-.37.1.31.31,0,0,0-.11.25.34.34,0,0,0,.12.27.62.62,0,0,0,.36.1Zm2.84-1.61h.15V86a.91.91,0,0,1-.2.64.9.9,0,0,1-.63.2,1.33,1.33,0,0,1-.45-.07.93.93,0,0,1-.34-.2l.09-.13a1,1,0,0,0,.31.19,1.21,1.21,0,0,0,.38.06.59.59,0,0,0,.68-.67v-.29a.7.7,0,0,1-.3.29.82.82,0,0,1-.42.11.93.93,0,0,1-.44-.11.81.81,0,0,1-.31-.3.9.9,0,0,1-.11-.44.89.89,0,0,1,.11-.43.81.81,0,0,1,.31-.3.92.92,0,0,1,.44-.1.88.88,0,0,1,.43.1.72.72,0,0,1,.3.3ZM21.6,86a.75.75,0,0,0,.37-.09.6.6,0,0,0,.25-.25.69.69,0,0,0,.09-.36.68.68,0,0,0-.09-.35.6.6,0,0,0-.25-.25.87.87,0,0,0-.37-.08.86.86,0,0,0-.36.08A.6.6,0,0,0,21,85a.68.68,0,0,0-.09.35.69.69,0,0,0,.09.36.6.6,0,0,0,.25.25.74.74,0,0,0,.36.09Zm3.1.22a.93.93,0,0,1-.44-.11.84.84,0,0,1-.31-.31.9.9,0,0,1-.11-.46A.88.88,0,0,1,24,84.9a.77.77,0,0,1,.31-.31.94.94,0,0,1,.88,0,.77.77,0,0,1,.31.31.89.89,0,0,1,.12.45.9.9,0,0,1-.12.46.84.84,0,0,1-.31.31.93.93,0,0,1-.44.11Zm0-.15a.74.74,0,0,0,.36-.09.77.77,0,0,0,.34-.64.66.66,0,0,0-.1-.37.67.67,0,0,0-.24-.26.74.74,0,0,0-.36-.09.68.68,0,0,0-.35.09.63.63,0,0,0-.25.26.75.75,0,0,0-.09.37.76.76,0,0,0,.09.38.63.63,0,0,0,.25.26.68.68,0,0,0,.35.09Zm2.22-1.6a.66.66,0,0,1,.51.19.7.7,0,0,1,.19.54v1h-.16v-1a.6.6,0,0,0-.15-.44.56.56,0,0,0-.41-.15.65.65,0,0,0-.48.18.66.66,0,0,0-.18.49v.92h-.16V84.49h.16v.37a.7.7,0,0,1,.26-.28.82.82,0,0,1,.42-.1Zm3.1,0a.82.82,0,0,1,.44.11.75.75,0,0,1,.3.31.84.84,0,0,1,.12.45.88.88,0,0,1-.12.46.75.75,0,0,1-.3.31.93.93,0,0,1-.44.11.72.72,0,0,1-.41-.11.7.7,0,0,1-.29-.3v1h-.17V84.49h.16v.41a.79.79,0,0,1,.29-.31.78.78,0,0,1,.42-.11Zm0,1.6a.74.74,0,0,0,.36-.09.69.69,0,0,0,.25-.26.76.76,0,0,0,.09-.38.75.75,0,0,0-.09-.37.69.69,0,0,0-.25-.26.74.74,0,0,0-.36-.09.68.68,0,0,0-.35.09.63.63,0,0,0-.25.26.75.75,0,0,0-.09.37.76.76,0,0,0,.09.38.63.63,0,0,0,.25.26.68.68,0,0,0,.35.09Zm2.05.15a.84.84,0,0,1-.75-.42,1,1,0,0,1-.11-.46,1,1,0,0,1,.11-.45.84.84,0,0,1,.31-.31.82.82,0,0,1,.44-.11.8.8,0,0,1,.44.11.71.71,0,0,1,.31.31.89.89,0,0,1,.12.45.9.9,0,0,1-.12.46.77.77,0,0,1-.31.31.9.9,0,0,1-.44.11Zm0-.15a.71.71,0,0,0,.36-.09.69.69,0,0,0,.25-.26.76.76,0,0,0,.09-.38.75.75,0,0,0-.09-.37.69.69,0,0,0-.25-.26.71.71,0,0,0-.36-.09.68.68,0,0,0-.35.09.63.63,0,0,0-.25.26.75.75,0,0,0-.09.37.76.76,0,0,0,.09.38.63.63,0,0,0,.25.26.68.68,0,0,0,.35.09Zm1.38.14V84.49h.17v1.73Zm.08-2.15a.14.14,0,0,1-.13-.13.13.13,0,0,1,0-.1.13.13,0,0,1,.09,0,.13.13,0,0,1,.1,0,.18.18,0,0,1,0,.09.18.18,0,0,1,0,.1.13.13,0,0,1-.1,0Zm1.63.41a.69.69,0,0,1,.51.19.7.7,0,0,1,.19.54v1h-.17v-1a.64.64,0,0,0-.14-.44.57.57,0,0,0-.42-.15.65.65,0,0,0-.48.18.69.69,0,0,0-.17.49v.92H34.3V84.49h.16v.37a.66.66,0,0,1,.27-.28.82.82,0,0,1,.42-.1ZM37.32,86l.07.12a.42.42,0,0,1-.16.09.64.64,0,0,1-.2,0,.45.45,0,0,1-.34-.12.46.46,0,0,1-.13-.35V84.63h-.31v-.14h.31v-.38h.17v.38h.55v.14h-.55v1.11a.38.38,0,0,0,.08.26.3.3,0,0,0,.24.09.36.36,0,0,0,.27-.1ZM41,84.49h.16l-.66,1.73h-.16l-.58-1.5-.58,1.5H39l-.65-1.73h.16L39.11,86l.59-1.54h.15L40.43,86Zm.54,1.73V84.49h.16v1.73Zm.08-2.15a.14.14,0,0,1-.13-.13.13.13,0,0,1,0-.1.13.13,0,0,1,.09,0,.13.13,0,0,1,.1,0,.18.18,0,0,1,0,.09.18.18,0,0,1,0,.1.13.13,0,0,1-.1,0ZM43.2,86l.07.12a.35.35,0,0,1-.16.09.63.63,0,0,1-.19,0,.48.48,0,0,1-.35-.12.5.5,0,0,1-.12-.35V84.63h-.32v-.14h.32v-.38h.16v.38h.55v.14h-.55v1.11a.38.38,0,0,0,.08.26.32.32,0,0,0,.24.09.36.36,0,0,0,.27-.1Zm1.37-1.51a.69.69,0,0,1,.52.19.73.73,0,0,1,.18.54v1h-.16v-1a.6.6,0,0,0-.15-.44.54.54,0,0,0-.41-.15.61.61,0,0,0-.65.67v.92h-.17V83.76h.17v1.09a.59.59,0,0,1,.26-.28.88.88,0,0,1,.41-.09Zm2.9,1.75a1.36,1.36,0,0,1-.49-.08,1.06,1.06,0,0,1-.36-.23l.08-.13A.78.78,0,0,0,47,86a1.07,1.07,0,0,0,.43.09A.83.83,0,0,0,48,86a.4.4,0,0,0,.08-.58.55.55,0,0,0-.22-.14,2.86,2.86,0,0,0-.36-.1,2.85,2.85,0,0,1-.4-.12.55.55,0,0,1-.26-.19.44.44,0,0,1-.11-.33.56.56,0,0,1,.09-.31.6.6,0,0,1,.27-.22,1,1,0,0,1,.46-.08,1.24,1.24,0,0,1,.38,0,1.35,1.35,0,0,1,.32.15l-.07.14a1.4,1.4,0,0,0-.3-.15,1.26,1.26,0,0,0-.33,0,.82.82,0,0,0-.49.13.41.41,0,0,0-.16.34.37.37,0,0,0,.09.25.69.69,0,0,0,.22.14,2.86,2.86,0,0,0,.36.1l.41.13a.64.64,0,0,1,.25.18.43.43,0,0,1,.11.32.56.56,0,0,1-.09.31.58.58,0,0,1-.28.22,1.05,1.05,0,0,1-.46.08Zm3.63-1.74h.16l-.66,1.73h-.15l-.59-1.5-.58,1.5h-.15l-.66-1.73h.16L49.21,86l.58-1.54h.15L50.52,86Zm1.07,0a.67.67,0,0,1,.49.16.62.62,0,0,1,.18.48v1.1h-.16v-.31a.69.69,0,0,1-.24.24.93.93,0,0,1-.39.08.69.69,0,0,1-.45-.13.45.45,0,0,1-.17-.36.42.42,0,0,1,.16-.35.72.72,0,0,1,.49-.14h.59v-.13a.46.46,0,0,0-.13-.37.52.52,0,0,0-.38-.13.92.92,0,0,0-.6.22l-.08-.12a.79.79,0,0,1,.31-.18,1.21,1.21,0,0,1,.38-.06Zm-.09,1.62a.69.69,0,0,0,.36-.1.66.66,0,0,0,.23-.29v-.33h-.59a.55.55,0,0,0-.37.1.31.31,0,0,0-.11.25.34.34,0,0,0,.12.27.64.64,0,0,0,.36.1Zm2.84-1.61h.16V86a.87.87,0,0,1-.21.64.9.9,0,0,1-.63.2,1.33,1.33,0,0,1-.45-.07.93.93,0,0,1-.34-.2l.09-.13a1,1,0,0,0,.31.19,1.21,1.21,0,0,0,.38.06.59.59,0,0,0,.68-.67v-.29a.74.74,0,0,1-.29.29.89.89,0,0,1-.43.11.93.93,0,0,1-.44-.11.81.81,0,0,1-.31-.3.9.9,0,0,1-.11-.44.89.89,0,0,1,.11-.43.81.81,0,0,1,.31-.3.92.92,0,0,1,.44-.1.88.88,0,0,1,.43.1.72.72,0,0,1,.3.3ZM54.2,86a.75.75,0,0,0,.37-.09.6.6,0,0,0,.25-.25.69.69,0,0,0,.09-.36.68.68,0,0,0-.09-.35.6.6,0,0,0-.25-.25.87.87,0,0,0-.37-.08.86.86,0,0,0-.36.08.67.67,0,0,0-.25.25.68.68,0,0,0-.09.35.69.69,0,0,0,.09.36.67.67,0,0,0,.25.25.74.74,0,0,0,.36.09Zm3.73-1.53a.65.65,0,0,1,.5.19.74.74,0,0,1,.19.54v1h-.17v-1a.64.64,0,0,0-.14-.44.54.54,0,0,0-.4-.15.6.6,0,0,0-.46.18.69.69,0,0,0-.17.49v.92h-.17v-1a.6.6,0,0,0-.14-.44.52.52,0,0,0-.4-.15.62.62,0,0,0-.46.18.69.69,0,0,0-.17.49v.92h-.16V84.49h.16v.37a.62.62,0,0,1,.25-.28.78.78,0,0,1,.41-.1.74.74,0,0,1,.4.1.61.61,0,0,1,.23.31.71.71,0,0,1,.27-.3.75.75,0,0,1,.43-.11Zm2,0a.67.67,0,0,1,.49.16.62.62,0,0,1,.18.48v1.1h-.16v-.31a.64.64,0,0,1-.25.24.86.86,0,0,1-.38.08.69.69,0,0,1-.45-.13.45.45,0,0,1-.17-.36.42.42,0,0,1,.16-.35.72.72,0,0,1,.49-.14h.59v-.13a.46.46,0,0,0-.13-.37.52.52,0,0,0-.38-.13.92.92,0,0,0-.6.22l-.08-.12a.79.79,0,0,1,.31-.18,1.21,1.21,0,0,1,.38-.06Zm-.09,1.62a.69.69,0,0,0,.36-.1.66.66,0,0,0,.23-.29v-.33h-.59a.55.55,0,0,0-.37.1.31.31,0,0,0-.11.25.34.34,0,0,0,.12.27.62.62,0,0,0,.36.1Zm2.28-1.62a.66.66,0,0,1,.51.19.7.7,0,0,1,.19.54v1h-.16v-1a.6.6,0,0,0-.15-.44.56.56,0,0,0-.41-.15.62.62,0,0,0-.48.18.66.66,0,0,0-.18.49v.92h-.16V84.49h.16v.37a.64.64,0,0,1,.26-.28.82.82,0,0,1,.42-.1Z"/></g></g></svg>